<svg width="46" height="68" viewBox="0 0 46 68" fill="none" xmlns="http://www.w3.org/2000/svg">
<path fill-rule="evenodd" clip-rule="evenodd" d="M34.7482 10.3379C30.1924 10.8057 31.4775 14.5401 26.6107 18.5481C23.574 21.0385 21.4715 22.3212 19.1355 24.1512C13.8409 28.3146 10.8425 33.0611 10.9597 40.0645C12.205 28.7809 21.316 23.4892 25.0533 20.7262C19.6419 25.4726 17.1498 29.4027 15.5537 32.633C12.1663 39.4796 12.0107 44.5384 18.8244 49.557C21.628 51.5811 25.5209 54.0313 26.1828 59.6731C24.5082 56.7939 20.7316 53.6037 17.6174 52.7084C24.0416 57.6505 27.0395 61.4236 26.066 68C23.9238 58.9739 13.3345 56.2113 8.3897 48.4674C-3.17356 28.9751 18.7067 25.4726 25.0141 16.0964C18.3176 22.7115 8.8568 24.3453 4.34081 34.1104C6.90989 24.1512 10.7252 21.1165 13.6839 18.8982C18.8627 15.1236 24.3129 13.8781 26.8045 6.79814C22.6781 13.8408 18.746 14.1517 12.8277 18.119C8.1169 21.2719 3.60043 26.1351 2.43266 37.1451C-2.58871 26.6396 3.13429 11.933 10.6482 5.35803C18.4349 -1.45127 28.09 -2.81294 36.0715 7.45864C46.5062 13.606 50.2435 27.5355 36.3055 44.966C46.3502 30.881 44.0917 18.4701 38.1739 13.4501C45.1432 23.5662 40.744 33.0993 36.6558 41.5424C34.125 46.7552 34.8649 47.9227 37.0842 53.2149C33.0736 49.7124 34.1633 46.4831 29.8814 42.982C26.9615 40.6471 23.3404 39.2074 20.8872 36.5616C19.5634 35.0827 19.1355 33.4882 20.8872 29.5576C21.8219 27.5742 22.8341 27.2241 23.9626 27.9626C25.0141 28.7025 28.5183 31.8146 28.9859 29.1688C29.1027 28.4289 28.9471 28.0013 29.7636 27.6517C30.3087 27.4183 30.8538 27.535 30.6983 26.7563C30.6203 26.3675 30.7371 26.2121 31.2042 26.1346C31.7493 26.0179 31.7105 25.8237 31.6325 25.2005C31.399 23.6829 32.6055 23.8776 33.3459 23.6442C34.046 23.4108 34.0461 22.867 33.8517 22.2433C33.735 21.8937 33.6574 21.5436 33.5407 21.1939C33.1898 19.9485 33.1511 19.1311 33.3071 18.2759L34.6692 18.119L33.4627 17.6527C34.5136 15.0844 35.2923 13.9183 34.7477 10.3384L34.7482 10.3379ZM37.9016 19.1311C38.6023 22.2433 38.3295 25.5128 37.5508 28.5088C36.1887 33.6828 33.969 35.4333 32.918 41.7371C33.2291 35.0832 35.254 32.9051 36.6166 28.1572C37.3565 25.5903 37.8236 22.6336 37.9016 19.1311ZM17.1498 2.94557C7.57275 7.41941 2.35562 18.1965 2.20008 28.5863C4.18576 18.4314 7.41721 9.71565 17.1498 2.94557Z" fill="white"/>
</svg>
