<?xml version="1.0" standalone="no"?>
<!DOCTYPE svg PUBLIC "-//W3C//DTD SVG 20010904//EN"
 "http://www.w3.org/TR/2001/REC-SVG-20010904/DTD/svg10.dtd">
<svg version="1.0" xmlns="http://www.w3.org/2000/svg"
 width="220.000000pt" height="220.000000pt" viewBox="0 0 220.000000 220.000000"
 preserveAspectRatio="xMidYMid meet">

<g transform="translate(0.000000,220.000000) scale(0.100000,-0.100000)"
fill="#000000" stroke="none">
<path d="M478 2104 c-170 -41 -307 -165 -369 -334 l-24 -65 0 -605 0 -605 24
-65 c46 -127 131 -225 248 -288 114 -60 131 -62 743 -62 612 0 629 2 743 62
117 63 202 161 248 288 l24 65 0 605 0 605 -24 65 c-62 171 -200 294 -373 335
-89 21 -1153 20 -1240 -1z m212 -884 c0 -357 1 -364 55 -428 39 -46 99 -74
172 -80 120 -9 216 39 259 131 24 52 24 54 24 380 l0 327 46 0 45 0 -3 -337
c-3 -331 -3 -339 -27 -391 -30 -66 -113 -144 -178 -166 -188 -65 -375 3 -452
164 l-26 55 -3 338 -3 337 46 0 45 0 0 -330z m920 -120 l0 -450 -45 0 -45 0 0
450 0 450 45 0 45 0 0 -450z"/>
</g>
</svg>
